PathFileType	4	(X/Y/Z)	/Users/itak/Documents/Research/Walk-IL/dataset/trc/00301_00010.trc
DataRate	CameraRate	NumFrames	NumMarkers	Units	OrigDataRate	OrigDataStartFrame	OrigNumFrames
100.000000	100.000000	4	56	mm	100.000000	0	394
Frame#	Time	RPSI			LPSI			L3			STRN			T10			C7			CLAV			RBAK			LBAK			LSHO			LUPA			LAEL			LAOL			LWTS			LWPS			LFRA			LIFD			LHPS			LHTS			RSHO			RUPA			RAEL			RAOL			RWTS			RWPS			RFRA			RIFD			RHTS			RHPS			RBHD			LFHD			RFHD			LBHD			LHIP			RASI			LASI			LKNE			LTHI			LANK			LTIP			LTOE			LMT1			LMT5			LHEE			RKNE			RTHI			RTIP			RTOE			RMT1			RMT5			RHIP			RANK			RHEE			*53			*54			*55			
		X1	Y1	Z1	X2	Y2	Z2	X3	Y3	Z3	X4	Y4	Z4	X5	Y5	Z5	X6	Y6	Z6	X7	Y7	Z7	X8	Y8	Z8	X9	Y9	Z9	X10	Y10	Z10	X11	Y11	Z11	X12	Y12	Z12	X13	Y13	Z13	X14	Y14	Z14	X15	Y15	Z15	X16	Y16	Z16	X17	Y17	Z17	X18	Y18	Z18	X19	Y19	Z19	X20	Y20	Z20	X21	Y21	Z21	X22	Y22	Z22	X23	Y23	Z23	X24	Y24	Z24	X25	Y25	Z25	X26	Y26	Z26	X27	Y27	Z27	X28	Y28	Z28	X29	Y29	Z29	X30	Y30	Z30	X31	Y31	Z31	X32	Y32	Z32	X33	Y33	Z33	X34	Y34	Z34	X35	Y35	Z35	X36	Y36	Z36	X37	Y37	Z37	X38	Y38	Z38	X39	Y39	Z39	X40	Y40	Z40	X41	Y41	Z41	X42	Y42	Z42	X43	Y43	Z43	X44	Y44	Z44	X45	Y45	Z45	X46	Y46	Z46	X47	Y47	Z47	X48	Y48	Z48	X49	Y49	Z49	X50	Y50	Z50	X51	Y51	Z51	X52	Y52	Z52	X53	Y53	Z53	X54	Y54	Z54	X55	Y55	Z55	X56	Y56	Z56	

1	0	-1351.212768554688	981.0586547851562	873.271728515625	-1314.207763671875	959.8824462890625	702.952880859375	-1306.961547851562	1045.08544921875	803.68798828125	-1044.894653320312	1188.756713867188	823.1837158203125	-1310.648559570312	1158.857299804688	814.22021484375	-1240.306640625	1396.186889648438	798.8709106445312	-1090.072998046875	1298.648193359375	811.7650146484375	-1309.110717773438	1269.24462890625	878.8025512695312	-1255.5634765625	1359.808471679688	694.2299194335938	-1162.86279296875	1358.5107421875	642.4990234375	-1222.970092773438	1256.108764648438	571.0516357421875	-1280.759521484375	1060.995239257812	560.9683227539062	-1329.644165039062	1062.6533203125	631.8175048828125	-1258.365112304688	823.0819702148438	604.1817016601562	-1301.015258789062	820.7907104492188	545.4303588867188	-1296.878295898438	956.2060546875	551.2564697265625	-1302.673950195312	643.9780883789062	605.3201904296875	-1320.09814453125	734.5570068359375	550.6607055664062	-1262.885009765625	722.5265502929688	583.1344604492188	-1174.8203125	1369.89599609375	960.5801391601562	-1183.836547851562	1313.8046875	1030.72265625	-1187.001708984375	1042.667602539062	1082.283325195312	-1240.405029296875	1036.450805664062	1004.357666015625	-1060.431396484375	862.1444702148438	963.8901977539062	-1081.908935546875	829.79443359375	1039.977783203125	-1149.68408203125	978.1944580078125	1077.175170898438	-1013.345886230469	689.9391479492188	912.0894165039062	-1010.50244140625	753.3428955078125	943.4138793945312	-1036.445556640625	732.1837158203125	1001.118957519531	-1217.616455078125	1543.50537109375	861.365234375	-1060.4677734375	1579.894409179688	722.9985961914062	-1053.228393554688	1587.400268554688	814.9374389648438	-1228.807373046875	1522.971557617188	716.183349609375	-1237.776611328125	900.8760986328125	632.2610473632812	-1147.785522460938	904.0841674804688	957.3845825195312	-1104.516479492188	905.505859375	708.8878173828125	-1005.206481933594	489.1990051269531	708.6159057617188	-1069.47265625	609.8999633789062	665.8405151367188	-958.7142944335938	44.94837188720703	749.7190551757812	-982.6807861328125	257.8625183105469	718.341064453125	-768.5404663085938	89.91815185546875	832.0116577148438	-836.1669311523438	61.39377593994141	864.3092651367188	-836.8981323242188	65.30034637451172	753.1809692382812	-1009.536254882812	32.91819000244141	803.4683837890625	-1366.78369140625	455.3810729980469	931.2069702148438	-1274.709594726562	698.644775390625	986.3789672851562	-1400.115966796875	335.8165893554688	904.58984375	-1376.489501953125	46.00636291503906	825.215576171875	-1425.348266601562	46.7896842956543	776.6043701171875	-1476.227905273438	39.37259292602539	884.9837036132812	-1282.217529296875	916.6691284179688	994.8406372070312	-1574.406372070312	62.71522903442383	847.0192260742188	-1619.958740234375	74.42921447753906	790.1934814453125	nan	nan	nan	nan	nan	nan	nan	nan	nan	
2	0.01	-1346.194458007812	980.9149169921875	873.2418212890625	-1309.10791015625	959.9617309570312	702.8046875	-1301.937133789062	1044.859741210938	803.6395874023438	-1040.4765625	1188.747314453125	823.0540771484375	-1305.899658203125	1158.324096679688	814.007568359375	-1236.186157226562	1395.9150390625	798.1199340820312	-1085.645141601562	1298.5009765625	811.4015502929688	-1304.696899414062	1268.856811523438	878.2361450195312	-1251.22802734375	1359.122802734375	693.53369140625	-1158.430786132812	1357.9111328125	641.86279296875	-1218.362915039062	1255.228881835938	570.600830078125	-1276.285034179688	1060.116088867188	560.8565063476562	-1324.970458984375	1061.91162109375	631.8054809570312	-1255.190551757812	822.1416015625	604.26416015625	-1297.744995117188	820.1279907226562	545.4549560546875	-1292.808959960938	955.467041015625	551.264892578125	-1300.495727539062	643.3717651367188	605.44970703125	-1317.277954101562	734.0369262695312	550.7838745117188	-1260.098266601562	721.6176147460938	583.1539306640625	-1170.777709960938	1370.051879882812	959.9724731445312	-1179.861083984375	1313.968872070312	1030.278076171875	-1182.560791015625	1042.771728515625	1081.807495117188	-1235.86962890625	1036.501953125	1003.778930664062	-1055.6259765625	862.446533203125	963.5043334960938	-1077.166870117188	830.0387573242188	1039.527954101562	-1145.112060546875	978.3419189453125	1076.5615234375	-1007.97509765625	690.6043090820312	911.8390502929688	-1005.607727050781	753.4945678710938	942.9010009765625	-1031.397705078125	732.4255981445312	1000.648986816406	-1213.910766601562	1543.422119140625	860.4310302734375	-1056.815185546875	1579.889404296875	722.020751953125	-1049.62548828125	1587.58837890625	813.9535522460938	-1225.037719726562	1522.580932617188	715.33203125	-1232.69140625	900.9966430664062	632.3241577148438	-1143.107666015625	903.7703247070312	957.7724609375	-1099.671264648438	905.3021850585938	709.2901611328125	-1000.091918945312	489.2773132324219	709.2039794921875	-1064.405151367188	609.7616577148438	666.2642822265625	-958.0049438476562	45.40255355834961	750.0565795898438	-979.2568969726562	257.8909912109375	718.9575805664062	-767.13037109375	85.76904296875	833.267822265625	-835.2286987304688	58.37271881103516	865.3002319335938	-835.74755859375	63.423583984375	754.0286865234375	-1008.990417480469	33.6556510925293	803.6406860351562	-1363.920654296875	455.7020874023438	931.418212890625	-1270.61572265625	698.4805908203125	986.5253295898438	-1397.923217773438	336.3207702636719	904.8320922851562	-1376.316162109375	45.99180603027344	825.1889038085938	-1425.077758789062	47.09008026123047	776.7261352539062	-1475.974975585938	39.53262329101562	885.1181030273438	-1277.73828125	916.7315673828125	995.2835083007812	-1573.614013671875	64.00631713867188	847.6580200195312	-1619.326538085938	76.46956634521484	790.659423828125	nan	nan	nan	nan	nan	nan	nan	nan	nan	
3	0.02	-1339.789306640625	980.8394165039062	873.29345703125	-1302.696899414062	960.2171630859375	702.71923828125	-1295.576782226562	1044.71044921875	803.6643676757812	-1034.79248046875	1188.869384765625	822.8790893554688	-1299.884033203125	1157.802368164062	813.774658203125	-1230.931640625	1395.673095703125	797.1797485351562	-1079.97216796875	1298.43603515625	810.9365234375	-1299.060791015625	1268.49755859375	877.5685424804688	-1245.7216796875	1358.389404296875	692.659912109375	-1152.80908203125	1357.271118164062	641.07177734375	-1212.4609375	1254.202880859375	570.04248046875	-1270.480712890625	1059.086791992188	560.7075805664062	-1318.927001953125	1061.020385742188	631.7752685546875	-1251.006591796875	821.035400390625	604.3199462890625	-1293.464477539062	819.3787231445312	545.4523315429688	-1287.519653320312	954.6038818359375	551.2490844726562	-1297.593627929688	642.7075805664062	605.556396484375	-1313.60791015625	733.4674072265625	550.8761596679688	-1256.483032226562	720.5548706054688	583.1456909179688	-1165.590454101562	1370.384155273438	959.19921875	-1174.740112304688	1314.32568359375	1029.702270507812	-1176.875732421875	1043.046752929688	1081.137939453125	-1230.03564453125	1036.707153320312	1002.966430664062	-1049.547607421875	862.8475952148438	963.0510864257812	-1071.216430664062	830.431640625	1039.0166015625	-1139.320678710938	978.6573486328125	1075.800903320312	-1001.311462402344	691.3330688476562	911.6231689453125	-999.4159545898438	753.8157958984375	942.4053344726562	-1025.141723632812	732.7998046875	1000.205688476562	-1209.18994140625	1543.383911132812	859.25146484375	-1052.1943359375	1579.99462890625	720.7783203125	-1045.059936523438	1587.931884765625	812.703369140625	-1220.2490234375	1522.16845703125	714.2446899414062	-1226.193481445312	901.3771362304688	632.4112548828125	-1137.075439453125	903.4599609375	958.195068359375	-1093.484497070312	905.2350463867188	709.71875	-993.5828857421875	489.5371398925781	709.9236450195312	-1057.927124023438	609.8761596679688	666.7835693359375	-957.1669311523438	45.94393539428711	750.4059448242188	-974.8024291992188	258.0091552734375	719.6300659179688	-765.4625244140625	80.98240661621094	834.5445556640625	-834.1073608398438	54.9161491394043	866.257568359375	-834.4317626953125	61.26531600952148	754.898681640625	-1008.299926757812	34.54509735107422	803.8214111328125	-1360.157592773438	456.1818542480469	931.6887817382812	-1265.29150390625	698.31884765625	986.67333984375	-1395.043579101562	337.0384216308594	905.1800537109375	-1376.087768554688	45.97238540649414	825.1702270507812	-1424.758666992188	47.45682144165039	776.8779907226562	-1475.592041015625	39.78482437133789	885.324951171875	-1271.91845703125	916.7985229492188	995.8267211914062	-1572.64013671875	65.86867523193359	848.4025268554688	-1618.496337890625	79.25434875488281	791.2371826171875	nan	nan	nan	nan	nan	nan	nan	nan	nan	
4	0.03	-1332.207153320312	980.8775634765625	873.4647216796875	-1295.225341796875	960.6985473632812	702.7424926757812	-1288.11865234375	1044.695678710938	803.7957763671875	-1028.009033203125	1189.18994140625	822.6574096679688	-1292.818725585938	1157.384033203125	813.5491333007812	-1224.721313476562	1395.52001953125	796.0908203125	-1073.240234375	1298.520629882812	810.3816528320312	-1292.388671875	1268.244995117188	876.8495483398438	-1239.240966796875	1357.69921875	691.6493530273438	-1146.204467773438	1356.67578125	640.1624145507812	-1205.452880859375	1253.118286132812	569.404052734375	-1263.487548828125	1057.99365234375	560.5299072265625	-1311.676513671875	1060.043090820312	631.7221069335938	-1245.867553710938	819.8504028320312	604.3129272460938	-1288.24658203125	818.6205444335938	545.403564453125	-1281.13525390625	953.6914672851562	551.1984252929688	-1294.006958007812	642.058837890625	605.60546875	-1309.161499023438	732.9202270507812	550.9053344726562	-1252.115844726562	719.4249267578125	583.0889282226562	-1159.414794921875	1370.947998046875	958.2852172851562	-1168.611328125	1314.939575195312	1029.011840820312	-1170.128295898438	1043.555786132812	1080.275268554688	-1223.08056640625	1037.135009765625	1001.918823242188	-1042.435668945312	863.346923828125	962.5678100585938	-1064.304565429688	831.0006103515625	1038.494873046875	-1132.522094726562	979.20068359375	1074.930297851562	-993.7002563476562	692.0371704101562	911.4938354492188	-992.1691284179688	754.3392944335938	942.0197143554688	-1017.976196289062	733.3219604492188	999.8784790039062	-1203.621215820312	1543.428100585938	857.8707885742188	-1046.776245117188	1580.2607421875	719.316650390625	-1039.697387695312	1588.468627929688	811.2319946289062	-1214.608032226562	1521.786376953125	712.9641723632812	-1218.518188476562	902.0874633789062	632.539306640625	-1129.8525390625	903.2102661132812	958.5957641601562	-1086.166748046875	905.3926391601562	710.1144409179688	-985.940673828125	490.0111999511719	710.7271728515625	-1050.258544921875	610.35546875	667.3610229492188	-956.249267578125	46.5308837890625	750.7216796875	-969.4774169921875	258.2201843261719	720.2989501953125	-763.6487426757812	75.91465759277344	835.7014770507812	-832.8887329101562	51.30646514892578	867.0582885742188	-833.0527954101562	58.98822784423828	755.679931640625	-1007.499206542969	35.51997375488281	803.9810180664062	-1355.558349609375	456.8301086425781	932.009765625	-1258.86376953125	698.1912841796875	986.8115844726562	-1391.5224609375	337.9763488769531	905.6437377929688	-1375.8115234375	45.94641876220703	825.1680908203125	-1424.406616210938	47.87670135498047	777.053955078125	-1475.058959960938	40.13903045654297	885.6134033203125	-1264.897216796875	916.873291015625	996.4426879882812	-1571.485595703125	68.27085113525391	849.2542114257812	-1617.454345703125	82.75104522705078	791.9371948242188	nan	nan	nan	nan	nan	nan	nan	nan	nan	
